<?xml version="1.0" encoding="UTF-8"?>
<svg width="1000px" height="1194px" viewBox="0 0 1000 1194" version="1.1" xmlns="http://www.w3.org/2000/svg" xmlns:xlink="http://www.w3.org/1999/xlink">
    <!-- Generator: Sketch 52.4 (67378) - http://www.bohemiancoding.com/sketch -->
    <title>Customer facing screen XL P@2x</title>
    <desc>Created with Sketch.</desc>
    <defs>
        <polygon id="path-1" points="23.6626312 0.715451503 0.294345312 0.715451503 0.294345312 24.887241 23.6626312 24.887241 23.6626312 0.715451503"></polygon>
        <polygon id="path-3" points="0 121.013122 799.393774 121.013122 799.393774 0.715451503 0 0.715451503"></polygon>
    </defs>
    <g id="Customer-facing-screen-XL-P" stroke="none" stroke-width="1" fill="none" fill-rule="evenodd">
        <rect fill="#FF4785" x="0" y="0" width="1000" height="1194"></rect>
        <g id="Group">
            <path d="M440.240494,0 L170.350975,668 L-3.41060513e-13,668 L-3.41060513e-13,0 L440.240494,0 Z" id="Combined-Shape" fill="#F04071"></path>
            <g id="logo_wit-copy" transform="translate(100.000000, 78.000000)">
                <g id="Page-1">
                    <polygon id="Fill-1" fill="#FFFFFF" points="700.398847 104.737908 720.443646 104.737908 720.443646 32.9888734 700.398847 32.9888734"></polygon>
                    <g id="Group-30" transform="translate(0.000000, 0.398973)">
                        <g id="Group-4" transform="translate(698.415577, 0.000000)">
                            <mask id="mask-2" fill="white">
                                <use xlink:href="#path-1"></use>
                            </mask>
                            <g id="Clip-3"></g>
                            <path d="M11.967498,24.8872357 C5.51439181,24.881034 0.288355012,19.4649204 0.294350465,12.7898705 C0.300345919,6.11482061 5.53437665,0.709043125 11.9874829,0.715244781 C18.4405891,0.721446438 23.6666259,6.13756002 23.662629,12.8126099 C23.6566335,19.4876598 18.4206043,24.8934373 11.967498,24.8872357" id="Fill-2" fill="#FFFFFF" mask="url(#mask-2)"></path>
                        </g>
                        <path d="M578.788072,104.580799 C559.502697,104.580799 543.812596,88.3510634 543.812596,68.4024007 C543.812596,54.8993267 551.001144,42.6097102 562.578364,36.337768 C567.472653,33.6896606 573.540051,35.6349136 576.108104,40.7120033 C578.676156,45.7808241 576.783592,52.0486318 571.879311,54.7070754 C566.931063,57.3861911 563.857394,62.6369272 563.857394,68.4024007 C563.857394,76.9172755 570.556314,83.8465933 578.788072,83.8465933 C584.683601,83.8465933 590.039539,80.2475652 592.439719,74.6784774 C594.698006,69.4463463 600.62751,67.0959184 605.673683,69.4277413 C610.731847,71.7595643 613.004124,77.8888684 610.749833,83.116865 C605.132093,96.1548148 592.585608,104.580799 578.788072,104.580799" id="Fill-5" fill="#FFFFFF"></path>
                        <mask id="mask-4" fill="white">
                            <use xlink:href="#path-3"></use>
                        </mask>
                        <g id="Clip-8"></g>
                        <polygon id="Fill-7" fill="#FFFFFF" mask="url(#mask-4)" points="779.348975 120.783661 799.393774 120.783661 799.393774 32.7284038 779.348975 32.7284038"></polygon>
                        <polygon id="Fill-9" fill="#FFFFFF" mask="url(#mask-4)" points="248.251736 120.783661 268.296535 120.783661 268.296535 32.7284038 248.251736 32.7284038"></polygon>
                        <polygon id="Fill-10" fill="#FFFFFF" mask="url(#mask-4)" points="622.447962 104.338935 642.492761 104.338935 642.492761 32.7284038 622.447962 32.7284038"></polygon>
                        <polygon id="Fill-11" fill="#FFFFFF" mask="url(#mask-4)" points="374.430048 104.338935 394.474847 104.338935 394.474847 32.7284038 374.430048 32.7284038"></polygon>
                        <path d="M508.811139,104.580799 C489.525764,104.580799 473.835663,88.3510634 473.835663,68.4024007 C473.835663,48.4537381 489.525764,32.2240023 508.811139,32.2240023 C520.602197,32.2240023 531.521916,38.3181637 538.022986,48.5240236 L521.281682,59.9309376 C518.499792,55.5649712 513.839326,52.9582082 508.811139,52.9582082 C500.579382,52.9582082 493.880462,59.887526 493.880462,68.4024007 C493.880462,76.9172755 500.579382,83.8465933 508.811139,83.8465933 C513.797358,83.8465933 518.437839,81.2832419 521.221727,76.9834265 L537.8731,88.5329786 C531.356042,98.583797 520.492281,104.580799 508.811139,104.580799" id="Fill-12" fill="#FFFFFF" mask="url(#mask-4)"></path>
                        <path d="M33.9924216,51.3069137 C37.3758557,49.0350401 41.1809701,47.9476829 44.9421178,47.9476829 C51.5670937,47.9476829 58.0641666,51.3069137 61.927237,57.4775622 C64.8610122,62.1515442 65.8582559,67.7351025 64.7311107,73.1904932 C63.7478563,77.9616345 61.2497508,82.1291478 57.6165061,85.1348842 L89.4183889,61.4900341 C88.4431285,55.162277 86.2028274,49.0598467 82.73146,43.5238344 C76.1964159,33.0905805 66.1220558,25.9152636 54.3709674,23.3188367 C42.607888,20.7286114 30.5830071,23.0149555 20.5026517,29.7871647 L33.9924216,51.300712 L33.9924216,51.3069137 Z" id="Fill-13" fill="#FFFFFF" mask="url(#mask-4)"></path>
                        <path d="M152.341471,89.2695287 C147.06747,88.1036173 142.5449,84.8787557 139.609126,80.1985721 C133.553719,70.5343236 136.227691,57.572861 145.574602,51.3009187 L112.141956,76.1612935 C113.093235,82.3918914 115.277578,88.5191283 118.802905,94.1460982 C127.410377,107.882768 141.877406,115.361966 156.62822,115.361966 C165.01386,115.361966 173.489433,112.941253 181.031713,107.891037 L167.541943,86.3630189 C163.017375,89.4100996 157.631459,90.4292385 152.341471,89.2695287" id="Fill-14" fill="#FFFFFF" mask="url(#mask-4)"></path>
                        <path d="M194.309844,43.5242479 C189.40956,35.6998242 182.518785,29.7069566 174.420927,26.103794 C171.720974,24.9027398 168.887123,23.9683569 165.949351,23.3192501 C154.196264,20.7352265 142.169385,23.0215706 131.595404,30.1307365 L128.983384,32.071855 L89.4193881,61.4883803 L57.6175053,85.1352976 C57.0899054,85.5714808 56.5383237,85.9849246 55.9647587,86.3694273 C54.9215498,87.0681473 53.8363728,87.6345653 52.7272139,88.1120929 C44.6513383,91.5932895 35.1825191,89.2573321 29.5048248,82.2391239 C28.9832204,81.5941516 28.4835992,80.9223054 28.0299433,80.1987788 L7.22572032,94.1463049 C13.7607644,104.579559 23.8351245,111.754876 35.5862129,114.351303 C36.3696188,114.522882 37.1550232,114.673789 37.9404276,114.804024 C38.7058471,114.930124 39.4732651,115.033485 40.2406832,115.118241 C40.2546726,115.120308 40.2706604,115.122375 40.2866483,115.124443 C41.8554586,115.296022 43.4242689,115.382845 44.9890822,115.382845 C53.6265319,115.382845 62.1660559,112.763679 69.9241725,107.55222 C69.9441573,107.537749 69.9641422,107.521211 69.9861255,107.506741 L72.5401886,105.609034 L112.142156,76.1615003 L145.572804,51.3011255 C146.080419,50.9600343 146.600025,50.6561532 147.127625,50.3667425 C147.279509,50.2819865 147.435391,50.2034322 147.589275,50.1248779 C148.002961,49.9119544 148.422643,49.7135013 148.846321,49.5315861 C148.98022,49.4737039 149.114118,49.4116874 149.250015,49.3579397 C149.807592,49.1326128 150.375162,48.9279581 150.948727,48.756379 C151.000687,48.7419084 151.054647,48.7295051 151.106607,48.7150346 C151.634207,48.5599932 152.167802,48.4338928 152.707393,48.3243302 C152.837295,48.2995236 152.967196,48.274717 153.099096,48.2519776 C153.628694,48.1568855 154.16229,48.0803984 154.697884,48.0307851 C154.761835,48.0245835 154.825787,48.0142474 154.889738,48.0080457 C155.429329,47.9625669 155.970918,47.9356931 156.514506,47.9356931 C156.572462,47.9356931 156.630418,47.9439619 156.688374,47.9439619 C157.080077,47.9480964 157.47178,47.9811719 157.863483,48.0080457 C158.151265,48.0287179 158.439047,48.0328524 158.726828,48.0659279 C159.408311,48.142415 160.091793,48.2519776 160.771278,48.4008173 C161.430778,48.5455226 162.078287,48.7233035 162.713805,48.9320926 C163.311352,49.1305456 163.896908,49.3600069 164.470473,49.6101404 C164.652335,49.6907619 164.828201,49.785854 165.010063,49.8726772 C165.395771,50.0545925 165.777481,50.2427094 166.149199,50.4494313 C166.355043,50.5631283 166.552893,50.6871615 166.752742,50.8091274 C167.090486,51.013782 167.422234,51.2225712 167.747987,51.4458308 C167.947835,51.5843345 168.141688,51.7269726 168.33754,51.8716779 C168.6533,52.1073409 168.961067,52.3512727 169.262838,52.6034734 C169.4447,52.7564476 169.624564,52.9094218 169.800431,53.0685977 C170.110196,53.3476722 170.40797,53.6391501 170.699749,53.9368296 C170.849635,54.0898038 171.003518,54.2386436 171.147409,54.3978194 C171.477159,54.7554483 171.790921,55.1316821 172.096689,55.5141176 C172.190618,55.6298819 172.288544,55.7394445 172.378475,55.8552088 C172.774175,56.3740807 173.153887,56.9094904 173.505621,57.471774 L194.309844,43.5263151 L194.309844,43.5242479" id="Fill-15" fill="#FFFFFF" mask="url(#mask-4)"></path>
                        <path d="M283.534779,52.9582082 C275.303022,52.9582082 268.604102,59.887526 268.604102,68.4024007 C268.604102,76.9172755 275.303022,83.8465933 283.534779,83.8465933 C291.766537,83.8465933 298.465456,76.9172755 298.465456,68.4024007 C298.465456,59.887526 291.766537,52.9582082 283.534779,52.9582082 M283.534779,104.580799 C264.249404,104.580799 248.559303,88.3510634 248.559303,68.4024007 C248.559303,48.4537381 264.249404,32.2240023 283.534779,32.2240023 C302.820154,32.2240023 318.510255,48.4537381 318.510255,68.4024007 C318.510255,88.3510634 302.820154,104.580799 283.534779,104.580799" id="Fill-16" fill="#FFFFFF" mask="url(#mask-4)"></path>
                        <path d="M359.608888,52.9582082 C351.37713,52.9582082 344.678211,59.887526 344.678211,68.4024007 C344.678211,76.9172755 351.37713,83.8465933 359.608888,83.8465933 C367.840645,83.8465933 374.539565,76.9172755 374.539565,68.4024007 C374.539565,59.887526 367.840645,52.9582082 359.608888,52.9582082 M359.608888,104.580799 C340.323513,104.580799 324.633412,88.3510634 324.633412,68.4024007 C324.633412,48.4537381 340.323513,32.2240023 359.608888,32.2240023 C378.894263,32.2240023 394.584364,48.4537381 394.584364,68.4024007 C394.584364,88.3510634 378.894263,104.580799 359.608888,104.580799" id="Fill-17" fill="#FFFFFF" mask="url(#mask-4)"></path>
                        <path d="M764.266613,52.9582082 C756.034855,52.9582082 749.335935,59.887526 749.335935,68.4024007 C749.335935,76.9172755 756.034855,83.8465933 764.266613,83.8465933 C772.49837,83.8465933 779.19729,76.9172755 779.19729,68.4024007 C779.19729,59.887526 772.49837,52.9582082 764.266613,52.9582082 M764.266613,104.580799 C744.981238,104.580799 729.291136,88.3510634 729.291136,68.4024007 C729.291136,48.4537381 744.981238,32.2240023 764.266613,32.2240023 C783.551987,32.2240023 799.242089,48.4537381 799.242089,68.4024007 C799.242089,88.3510634 783.551987,104.580799 764.266613,104.580799" id="Fill-18" fill="#FFFFFF" mask="url(#mask-4)"></path>
                        <path d="M588.021669,102.7633 C584.036691,102.7633 580.271547,100.288839 578.706733,96.2288212 C576.658287,90.9119342 579.166385,84.8797893 584.310484,82.7608899 C590.026149,80.4042604 593.719348,74.7710888 593.719348,68.4019873 C593.719348,59.8871126 587.020429,52.9577947 578.788671,52.9577947 C572.585375,52.9577947 566.963639,56.9909388 564.79928,62.9962098 C562.854755,68.3606429 557.083132,71.0749014 551.90306,69.0821023 C546.716993,67.0789672 544.080992,61.1088389 546.017523,55.7423386 C551.095672,41.6749138 564.265685,32.2235889 578.788671,32.2235889 C598.074046,32.2235889 613.764147,48.4533247 613.764147,68.4019873 C613.764147,83.308703 605.112708,96.5058286 591.726859,102.025303 C590.511781,102.523503 589.254734,102.7633 588.021669,102.7633" id="Fill-19" fill="#FFFFFF" mask="url(#mask-4)"></path>
                        <path d="M687.437477,103.869262 L667.392678,103.869262 L667.392678,67.1223788 C667.392678,62.5682955 666.147622,59.0726283 663.687487,56.7366709 C661.531123,54.6859897 658.495425,53.5572882 655.141968,53.5572882 C653.836958,53.5572882 642.391637,53.9252532 642.391637,66.6737923 L622.346838,66.6737923 C622.346838,44.6868518 639.244024,32.8230824 655.141968,32.8230824 C671.191797,32.8230824 687.437477,44.6062303 687.437477,67.1223788 L687.437477,103.869262 Z" id="Fill-20" fill="#FFFFFF" mask="url(#mask-4)"></path>
                        <polygon id="Fill-21" fill="#FFFFFF" mask="url(#mask-4)" points="440.207365 120.890123 401.750529 32.8844788 423.446076 32.8844788 449.538289 96.368772"></polygon>
                        <polygon id="Fill-22" fill="#FFFFFF" mask="url(#mask-4)" points="440.150209 121.013122 419.807636 121.013122 453.45412 32.8855124 473.796693 32.8855124"></polygon>
                        <path d="M33.9924216,51.3002986 L20.5026517,29.7867512 C-0.311563723,43.7466806 -6.26704734,72.6174601 7.22472108,94.145478 L28.0309425,80.1979519 C26.8938049,78.3870681 26.0664323,76.4583529 25.5308385,74.4800244 C24.9952447,72.5016959 24.753428,70.4737541 24.7913993,68.4623501 C24.9173038,61.7542247 28.1528501,55.2197457 33.9924216,51.3002986" id="Fill-23" fill="#FFFFFF" mask="url(#mask-4)"></path>
                        <path d="M173.505021,57.4777689 C176.438796,62.1579525 177.43604,67.7353092 176.308895,73.1906999 C175.183748,78.6543596 172.070109,83.3283415 167.543542,86.3630189 L181.031314,107.891037 C191.115666,101.125029 198.052405,90.7062459 200.558505,78.5468642 C200.914235,76.8248708 201.164046,75.098743 201.32992,73.3726152 C201.44783,72.1653594 201.521774,70.9581035 201.547755,69.7549821 C201.549753,69.6392178 201.557747,69.5255208 201.559746,69.4097565 C201.687649,60.2953883 199.215523,51.3443303 194.311243,43.5261084 L173.505021,57.4715672" id="Fill-24" fill="#FFFFFF" mask="url(#mask-4)"></path>
                        <path d="M33.9924216,51.3069137 C37.3758557,49.0350401 41.1809701,47.9476829 44.9421178,47.9476829 C51.5670937,47.9476829 58.0641666,51.3069137 61.927237,57.4775622 C64.8610122,62.1515442 65.8582559,67.7351025 64.7311107,73.1904932 C63.7478563,77.9616345 61.2497508,82.1291478 57.6165061,85.1348842 L89.4183889,61.4900341 C88.4431285,55.162277 86.2028274,49.0598467 82.73146,43.5238344 C76.1964159,33.0905805 66.1220558,25.9152636 54.3709674,23.3188367 C42.607888,20.7286114 30.5830071,23.0149555 20.5026517,29.7871647 L33.9924216,51.300712 L33.9924216,51.3069137 Z" id="Fill-25" fill="#FFFFFF" mask="url(#mask-4)"></path>
                        <path d="M152.341471,89.2695287 C147.06747,88.1036173 142.5449,84.8787557 139.609126,80.1985721 C133.553719,70.5343236 136.227691,57.572861 145.574602,51.3009187 L112.141956,76.1612935 C113.093235,82.3918914 115.277578,88.5191283 118.802905,94.1460982 C127.410377,107.882768 141.877406,115.361966 156.62822,115.361966 C165.01386,115.361966 173.489433,112.941253 181.031713,107.891037 L167.541943,86.3630189 C163.017375,89.4100996 157.631459,90.4292385 152.341471,89.2695287" id="Fill-26" fill="#FFFFFF" mask="url(#mask-4)"></path>
                        <path d="M194.309844,43.5242479 C189.40956,35.6998242 182.518785,29.7069566 174.420927,26.103794 C171.720974,24.9027398 168.887123,23.9683569 165.949351,23.3192501 C154.196264,20.7352265 142.169385,23.0215706 131.595404,30.1307365 L128.983384,32.071855 L89.4193881,61.4883803 L57.6175053,85.1352976 C57.0899054,85.5714808 56.5383237,85.9849246 55.9647587,86.3694273 C54.9215498,87.0681473 53.8363728,87.6345653 52.7272139,88.1120929 C44.6513383,91.5932895 35.1825191,89.2573321 29.5048248,82.2391239 C28.9832204,81.5941516 28.4835992,80.9223054 28.0299433,80.1987788 L7.22572032,94.1463049 C13.7607644,104.579559 23.8351245,111.754876 35.5862129,114.351303 C36.3696188,114.522882 37.1550232,114.673789 37.9404276,114.804024 C38.7058471,114.930124 39.4732651,115.033485 40.2406832,115.118241 C40.2546726,115.120308 40.2706604,115.122375 40.2866483,115.124443 C41.8554586,115.296022 43.4242689,115.382845 44.9890822,115.382845 C53.6265319,115.382845 62.1660559,112.763679 69.9241725,107.55222 C69.9441573,107.537749 69.9641422,107.521211 69.9861255,107.506741 L72.5401886,105.609034 L112.142156,76.1615003 L145.572804,51.3011255 C146.080419,50.9600343 146.600025,50.6561532 147.127625,50.3667425 C147.279509,50.2819865 147.435391,50.2034322 147.589275,50.1248779 C148.002961,49.9119544 148.422643,49.7135013 148.846321,49.5315861 C148.98022,49.4737039 149.114118,49.4116874 149.250015,49.3579397 C149.807592,49.1326128 150.375162,48.9279581 150.948727,48.756379 C151.000687,48.7419084 151.054647,48.7295051 151.106607,48.7150346 C151.634207,48.5599932 152.167802,48.4338928 152.707393,48.3243302 C152.837295,48.2995236 152.967196,48.274717 153.099096,48.2519776 C153.628694,48.1568855 154.16229,48.0803984 154.697884,48.0307851 C154.761835,48.0245835 154.825787,48.0142474 154.889738,48.0080457 C155.429329,47.9625669 155.970918,47.9356931 156.514506,47.9356931 C156.572462,47.9356931 156.630418,47.9439619 156.688374,47.9439619 C157.080077,47.9480964 157.47178,47.9811719 157.863483,48.0080457 C158.151265,48.0287179 158.439047,48.0328524 158.726828,48.0659279 C159.408311,48.142415 160.091793,48.2519776 160.771278,48.4008173 C161.430778,48.5455226 162.078287,48.7233035 162.713805,48.9320926 C163.311352,49.1305456 163.896908,49.3600069 164.470473,49.6101404 C164.652335,49.6907619 164.828201,49.785854 165.010063,49.8726772 C165.395771,50.0545925 165.777481,50.2427094 166.149199,50.4494313 C166.355043,50.5631283 166.552893,50.6871615 166.752742,50.8091274 C167.090486,51.013782 167.422234,51.2225712 167.747987,51.4458308 C167.947835,51.5843345 168.141688,51.7269726 168.33754,51.8716779 C168.6533,52.1073409 168.961067,52.3512727 169.262838,52.6034734 C169.4447,52.7564476 169.624564,52.9094218 169.800431,53.0685977 C170.110196,53.3476722 170.40797,53.6391501 170.699749,53.9368296 C170.849635,54.0898038 171.003518,54.2386436 171.147409,54.3978194 C171.477159,54.7554483 171.790921,55.1316821 172.096689,55.5141176 C172.190618,55.6298819 172.288544,55.7394445 172.378475,55.8552088 C172.774175,56.3740807 173.153887,56.9094904 173.505621,57.471774 L194.309844,43.5263151 L194.309844,43.5242479" id="Fill-27" fill="#FFFFFF" mask="url(#mask-4)"></path>
                        <path d="M194.309844,43.5242479 C189.40956,35.6998242 182.518785,29.7069566 174.420927,26.103794 C171.720974,24.9027398 168.887123,23.9683569 165.949351,23.3192501 C154.196264,20.7352265 142.169385,23.0215706 131.595404,30.1307365 L128.983384,32.071855 L89.4193881,61.4883803 L57.6175053,85.1352976 C57.0899054,85.5714808 56.5383237,85.9849246 55.9647587,86.3694273 C54.9215498,87.0681473 53.8363728,87.6345653 52.7272139,88.1120929 C44.6513383,91.5932895 35.1825191,89.2573321 29.5048248,82.2391239 C28.9832204,81.5941516 28.4835992,80.9223054 28.0299433,80.1987788 L7.22572032,94.1463049 C13.7607644,104.579559 23.8351245,111.754876 35.5862129,114.351303 C36.3696188,114.522882 37.1550232,114.673789 37.9404276,114.804024 C38.7058471,114.930124 39.4732651,115.033485 40.2406832,115.118241 C40.2546726,115.120308 40.2706604,115.122375 40.2866483,115.124443 C41.8554586,115.296022 43.4242689,115.382845 44.9890822,115.382845 C53.6265319,115.382845 62.1660559,112.763679 69.9241725,107.55222 C69.9441573,107.537749 69.9641422,107.521211 69.9861255,107.506741 L72.5401886,105.609034 L112.142156,76.1615003 L145.572804,51.3011255 C146.080419,50.9600343 146.600025,50.6561532 147.127625,50.3667425 C147.279509,50.2819865 147.435391,50.2034322 147.589275,50.1248779 C148.002961,49.9119544 148.422643,49.7135013 148.846321,49.5315861 C148.98022,49.4737039 149.114118,49.4116874 149.250015,49.3579397 C149.807592,49.1326128 150.375162,48.9279581 150.948727,48.756379 C151.000687,48.7419084 151.054647,48.7295051 151.106607,48.7150346 C151.634207,48.5599932 152.167802,48.4338928 152.707393,48.3243302 C152.837295,48.2995236 152.967196,48.274717 153.099096,48.2519776 C153.628694,48.1568855 154.16229,48.0803984 154.697884,48.0307851 C154.761835,48.0245835 154.825787,48.0142474 154.889738,48.0080457 C155.429329,47.9625669 155.970918,47.9356931 156.514506,47.9356931 C156.572462,47.9356931 156.630418,47.9439619 156.688374,47.9439619 C157.080077,47.9480964 157.47178,47.9811719 157.863483,48.0080457 C158.151265,48.0287179 158.439047,48.0328524 158.726828,48.0659279 C159.408311,48.142415 160.091793,48.2519776 160.771278,48.4008173 C161.430778,48.5455226 162.078287,48.7233035 162.713805,48.9320926 C163.311352,49.1305456 163.896908,49.3600069 164.470473,49.6101404 C164.652335,49.6907619 164.828201,49.785854 165.010063,49.8726772 C165.395771,50.0545925 165.777481,50.2427094 166.149199,50.4494313 C166.355043,50.5631283 166.552893,50.6871615 166.752742,50.8091274 C167.090486,51.013782 167.422234,51.2225712 167.747987,51.4458308 C167.947835,51.5843345 168.141688,51.7269726 168.33754,51.8716779 C168.6533,52.1073409 168.961067,52.3512727 169.262838,52.6034734 C169.4447,52.7564476 169.624564,52.9094218 169.800431,53.0685977 C170.110196,53.3476722 170.40797,53.6391501 170.699749,53.9368296 C170.849635,54.0898038 171.003518,54.2386436 171.147409,54.3978194 C171.477159,54.7554483 171.790921,55.1316821 172.096689,55.5141176 C172.190618,55.6298819 172.288544,55.7394445 172.378475,55.8552088 C172.774175,56.3740807 173.153887,56.9094904 173.505621,57.471774 L194.309844,43.5263151 L194.309844,43.5242479" id="Fill-27" fill="#FFFFFF" mask="url(#mask-4)"></path>
                        <path d="M33.9924216,51.3002986 L20.5026517,29.7867512 C-0.311563723,43.7466806 -6.26704734,72.6174601 7.22472108,94.145478 L28.0309425,80.1979519 C26.8938049,78.3870681 26.0664323,76.4583529 25.5308385,74.4800244 C24.9952447,72.5016959 24.753428,70.4737541 24.7913993,68.4623501 C24.9173038,61.7542247 28.1528501,55.2197457 33.9924216,51.3002986" id="Fill-28" fill="#FFFFFF" mask="url(#mask-4)"></path>
                        <path d="M173.505021,57.4777689 C176.438796,62.1579525 177.43604,67.7353092 176.308895,73.1906999 C175.183748,78.6543596 172.070109,83.3283415 167.543542,86.3630189 L181.031314,107.891037 C191.115666,101.125029 198.052405,90.7062459 200.558505,78.5468642 C200.914235,76.8248708 201.164046,75.098743 201.32992,73.3726152 C201.44783,72.1653594 201.521774,70.9581035 201.547755,69.7549821 C201.549753,69.6392178 201.557747,69.5255208 201.559746,69.4097565 C201.687649,60.2953883 199.215523,51.3443303 194.311243,43.5261084 L173.505021,57.4715672" id="Fill-29" fill="#FFFFFF" mask="url(#mask-4)"></path>
                    </g>
                </g>
            </g>
            <path d="M-2.13162821e-13,1089.63346 L-2.13162821e-13,668 L170.350975,668 L-2.4158453e-13,1089.63346 Z" id="Combined-Shape" fill="#E63A64"></path>
            <path d="M170.350975,668 L1000,668 L1000,1194 L0,1194 L0,1089.63346 L170.350975,668 Z" id="Combined-Shape" fill="#F44176"></path>
        </g>
    </g>
</svg>